<svg
  xmlns="http://www.w3.org/2000/svg"
  viewBox="0 0 64 64"
  role="img"
  aria-label="TrialLand gnome and wand logo"
>
  <defs>
    <style>
      .gnome {
        fill: #e27a55;
      }
      .skin {
        fill: #f3b894;
      }
    </style>
  </defs>

  <rect class="gnome" x="14" y="30" width="24" height="18" />
  <rect class="skin" x="18" y="30" width="16" height="12" />
  <rect class="skin" x="16" y="32" width="20" height="2" />
  <rect class="skin" x="14" y="34" width="24" height="2" />
  <rect class="skin" x="16" y="36" width="20" height="2" />
  <rect class="skin" x="18" y="38" width="16" height="2" />
  <rect class="skin" x="18" y="24" width="16" height="6" />
  <rect x="20" y="26" width="2" height="2" fill="#171717" />
  <rect x="30" y="26" width="2" height="2" fill="#171717" />
  <polygon class="gnome" points="26,10 16,24 36,24" />

  <rect class="gnome" x="16" y="48" width="6" height="4" />
  <rect class="gnome" x="30" y="48" width="6" height="4" />

  <rect class="gnome" x="46" y="24" width="3" height="22" />
  <polygon
    class="gnome"
    points="47.5,16 49,19 52,19.5 50,21.5 50.7,24.5 47.5,23 44.3,24.5 45,21.5 43,19.5 46,19"
  />
</svg>
