<svg
  xmlns="http://www.w3.org/2000/svg"
  viewBox="0 0 80 72"
  role="img"
  aria-label="Pixel gnome holding wand"
>
  <defs>
    <style>
      .robe {
        fill: #e27a55;
      }
      .skin {
        fill: #f3b894;
      }
      .eye {
        fill: #1a1a1a;
      }
    </style>
  </defs>

  <rect class="robe" x="18" y="30" width="22" height="16" />

  <rect class="skin" x="20" y="30" width="18" height="10" />
  <rect class="skin" x="18" y="32" width="22" height="2" />
  <rect class="skin" x="16" y="34" width="26" height="2" />
  <rect class="skin" x="18" y="36" width="22" height="2" />
  <rect class="skin" x="20" y="38" width="18" height="2" />

  <rect class="skin" x="20" y="24" width="18" height="6" />

  <rect class="eye" x="22" y="26" width="3" height="3" />
  <rect class="eye" x="31" y="26" width="3" height="3" />

  <polygon class="robe" points="29,10 18,24 40,24" />

  <rect class="robe" x="16" y="32" width="3" height="10" />

  <rect class="robe" x="40" y="34" width="10" height="4" />

  <rect class="robe" x="50" y="22" width="4" height="24" />

  <polygon
    class="robe"
    points="52,16 53.8,18.8 57,19.4 54.8,21.3 55.4,24.3 52,22.8 48.6,24.3 49.2,21.3 47,19.4 50.2,18.8"
  />

  <rect class="robe" x="22" y="46" width="5" height="5" />
  <rect class="robe" x="31" y="46" width="5" height="5" />
</svg>
